<svg xmlns="http://www.w3.org/2000/svg" xmlns:xlink="http://www.w3.org/1999/xlink" width="300" height="150" viewBox="0 0 300 150">
  <defs>
    <linearGradient id="linear-gradient" x1="0.5" x2="0.5" y2="1" gradientUnits="objectBoundingBox">
      <stop offset="0" stop-color="#232323"/>
      <stop offset="0.498" stop-color="#4f4f4f"/>
      <stop offset="1"/>
    </linearGradient>
    <linearGradient id="linear-gradient-2" x1="0.5" x2="0.5" y2="1" gradientUnits="objectBoundingBox">
      <stop offset="0" stop-color="#232323"/>
      <stop offset="0.494" stop-color="#4d4d4d"/>
      <stop offset="1"/>
    </linearGradient>
  </defs>
  <g id="glasses_red_star_shades" transform="translate(-398.5 -1702.5)">
    <g id="Rectangle_2441" data-name="Rectangle 2441" transform="translate(398.5 1702.5)" fill="none" stroke="red" stroke-width="2" opacity="0">
      <rect width="300" height="150" stroke="none"/>
      <rect x="1" y="1" width="298" height="148" fill="none"/>
    </g>
    <g id="Group_12200" data-name="Group 12200" transform="translate(449.938 1732.272)">
      <rect id="Rectangle_992" data-name="Rectangle 992" width="27.198" height="9.164" transform="translate(84.487 40.654)" fill="#f01" stroke="#231f20" stroke-miterlimit="10" stroke-width="1.42"/>
      <path id="Path_2440" data-name="Path 2440" d="M127.5,969.574a11.341,11.341,0,0,1-4.368-.893l-13.979-5.824a1.822,1.822,0,0,0-.582-.116,1.594,1.594,0,0,0-.582.136L94.013,968.7a11.247,11.247,0,0,1-4.349.893,11.377,11.377,0,0,1-8.329-3.669,11.125,11.125,0,0,1-2.932-8.562l1.2-15.086a1.572,1.572,0,0,0-.349-1.126l-9.863-11.494a11.3,11.3,0,0,1,5.98-18.367L90.091,907.8a1.573,1.573,0,0,0,.951-.7l7.882-12.911a11.3,11.3,0,0,1,19.318,0l7.882,12.911a1.475,1.475,0,0,0,.932.7l14.736,3.495a11.319,11.319,0,0,1,5.96,18.367L137.91,941.15a1.494,1.494,0,0,0-.369,1.126l1.223,15.085a11.2,11.2,0,0,1-2.951,8.562,11.336,11.336,0,0,1-8.31,3.65Z" transform="translate(-61.83 -883.916)" opacity="0.95" fill="url(#linear-gradient)"/>
      <path id="Path_2438" data-name="Path 2438" d="M110.937,895.968a6.348,6.348,0,0,1,5.475,3.087l7.882,12.911a6.35,6.35,0,0,0,4,2.912l14.736,3.495a6.426,6.426,0,0,1,3.378,10.426l-9.863,11.493a6.466,6.466,0,0,0-1.514,4.7l1.223,15.085a6.446,6.446,0,0,1-6.407,6.951,6.682,6.682,0,0,1-2.485-.505L113.383,960.7a6.364,6.364,0,0,0-2.466-.5,6.447,6.447,0,0,0-2.466.505l-13.979,5.824a6.586,6.586,0,0,1-2.466.5,6.426,6.426,0,0,1-6.387-6.95l1.223-15.085a6.465,6.465,0,0,0-1.534-4.7L75.485,928.8a6.426,6.426,0,0,1,3.4-10.426L93.6,914.878a6.35,6.35,0,0,0,4-2.912l7.882-12.911a6.348,6.348,0,0,1,5.475-3.087m0-9.707a16.075,16.075,0,0,0-13.823,7.766l-7.164,11.649-13.357,3.184a16.211,16.211,0,0,0-8.542,26.307L77,945.591l-1.107,13.59a16.174,16.174,0,0,0,22.385,16.211l12.678-5.281,12.678,5.281a16.2,16.2,0,0,0,22.385-16.211l-1.107-13.59,8.95-10.426a16.192,16.192,0,0,0-8.484-26.307l-13.357-3.184-7.145-11.649a16.114,16.114,0,0,0-13.843-7.766Z" transform="translate(-64.174 -886.26)" fill="#f01" stroke="#231f20" stroke-miterlimit="10" stroke-width="1.42"/>
      <path id="Path_2441" data-name="Path 2441" d="M180.838,969.613a11.239,11.239,0,0,1-4.349-.893L162.51,962.9a2.078,2.078,0,0,0-.582-.117,1.59,1.59,0,0,0-.6.136l-13.959,5.824A11.307,11.307,0,0,1,131.738,957.4l1.223-15.085a1.572,1.572,0,0,0-.369-1.126L122.749,929.7a11.319,11.319,0,0,1,5.96-18.366l14.716-3.495a1.514,1.514,0,0,0,.951-.7l7.882-12.911a11.3,11.3,0,0,1,19.415,0l7.882,12.911a1.572,1.572,0,0,0,.951.7l14.716,3.495A11.3,11.3,0,0,1,201.2,929.7l-9.863,11.494a1.572,1.572,0,0,0-.349,1.126l1.2,15.085a11.125,11.125,0,0,1-2.932,8.562,11.377,11.377,0,0,1-8.426,3.65Z" transform="translate(-11.586 -883.955)" opacity="0.95" fill="url(#linear-gradient-2)"/>
      <path id="Path_2439" data-name="Path 2439" d="M164.312,895.967a6.348,6.348,0,0,1,5.475,3.087l7.882,12.911a6.348,6.348,0,0,0,4,2.912l14.716,3.495a6.407,6.407,0,0,1,3.378,10.426l-9.843,11.493a6.464,6.464,0,0,0-1.534,4.7l1.223,15.085a6.426,6.426,0,0,1-6.387,6.95,6.753,6.753,0,0,1-2.485-.5L166.777,960.7a6.447,6.447,0,0,0-2.466-.5,6.289,6.289,0,0,0-2.466.5l-13.979,5.824a6.756,6.756,0,0,1-2.485.5,6.426,6.426,0,0,1-6.387-6.95l1.223-15.085a6.387,6.387,0,0,0-1.534-4.7L128.841,928.8a6.426,6.426,0,0,1,3.378-10.426l14.736-3.495a6.271,6.271,0,0,0,3.98-2.912l7.882-12.911a6.388,6.388,0,0,1,5.494-3.087m0-9.708a16.114,16.114,0,0,0-13.843,7.766l-7.145,11.649-13.357,3.184a16.192,16.192,0,0,0-8.562,26.307l8.95,10.426-1.107,13.59a16.173,16.173,0,0,0,22.385,16.27l12.678-5.281,12.678,5.281a16.2,16.2,0,0,0,22.385-16.211l-1.107-13.59,8.931-10.426a16.211,16.211,0,0,0-8.542-26.307L185.3,905.733l-7.164-11.649a16.114,16.114,0,0,0-13.823-7.766Z" transform="translate(-13.969 -886.26)" fill="#f01" stroke="#231f20" stroke-miterlimit="10" stroke-width="1.42"/>
    </g>
  </g>
</svg>
